# xmcd
#
# Track frame offsets:
# 180
# 19191
# 32576
# 58163
# 76718
# 98690
# 117082
# 142973
# 155423
# 174430
# 194055
# 219106
#
# Disc length: 3136 seconds
#
#
# Revision: 5
# Processed by: cddbd v1.5.2PL0 Copyright (c) Steve Scherf et al.
# Submitted via: FreeRIP 2.951 
#
DISCID=930c3e0c
DTITLE=Nick Cave And The Bad Seeds - The Boatman's Call
DYEAR=1997
DGENRE=
TTITLE0=Into My Arms
TTITLE1=Lime Tree Arbour
TTITLE2=People Ain't No Good
TTITLE3=Brompton Oratory
TTITLE4=There Is A Kingdom
TTITLE5=(Are You) The One That I've Been Waiting For?
TTITLE6=Where Do We Go Now But Nowhere
TTITLE7=West Country Girl
TTITLE8=Black Hair
TTITLE9=Idiot Prayer
TTITLE10=Far From Me
TTITLE11=Green Eyes
EXTD=
EXTT0=
EXTT1=
EXTT2=
EXTT3=
EXTT4=
EXTT5=
EXTT6=
EXTT7=
EXTT8=
EXTT9=
EXTT10=
EXTT11=
PLAYORDER=
